<svg id="Layer_1" data-name="Layer 1" xmlns="http://www.w3.org/2000/svg" viewBox="0 0 310 310"><defs><style>.cls-1{fill:#43c1c4;}.cls-2{fill:#9cca3f;}.cls-3{fill:#ef6339;}</style></defs><title>Artboard 1</title><g id="lojaintegrada"><path class="cls-1" d="M40.5,63.65,135.63,9.19a39.24,39.24,0,0,1,38.51-.27l94,52.79c6.69,3.71,6.65,12.88.13,17.12l-92.14,52.89a44.42,44.42,0,0,1-43.64.33L40.61,80.42A9.63,9.63,0,0,1,40.5,63.65Z"/><path class="cls-2" d="M18.67,200.68V104a9.57,9.57,0,0,1,14.12-8.41l92.07,51.68a40.88,40.88,0,0,1,21.42,36V296.51a9.47,9.47,0,0,1-14.2,8.21L32.24,247.26a27.08,27.08,0,0,1-13.57-23.47Z"/><path class="cls-3" d="M162.8,224.54V183.15a38.88,38.88,0,0,1,19.41-33.65L274,98.22c7.69-4.45,17.31-4.92,17.31,10V218.63a35.6,35.6,0,0,1-17.86,30.86L178.7,304a10.61,10.61,0,0,1-15.9-9.2Z"/></g></svg>